# xmcd CD database file
#
# Track frame offsets:
#	150
#	11297
#	23440
#	35942
#	49312
#	57814
#	71230
#	84180
#	96305
#	110472
#	120054
#	130355
#
# Disc length: 1878 seconds
#
# Revision: 0
# Processed by: cddbd v1.4PL0 Copyright (c) Steve Scherf et al.
# Submitted via: CDex 1.40Beta8
#
DISCID=9507540c
DTITLE=João Mineiro e Marciano - Esta Noite como Lembrança
DYEAR=1900
DGENRE=Country
TTITLE0=Canção do Nosso Adeus
TTITLE1=Casa de Festa
TTITLE2=Quando eu ia embora
TTITLE3=Você é mais forte que eu
TTITLE4=Sofredor Apaixonado
TTITLE5=Ultimo Café
TTITLE6=Esta noite como lembrança
TTITLE7=Filho Sertanejo
TTITLE8=A Bailarina
TTITLE9=A Mulher do Palhaço
TTITLE10=Filho Adotivo
TTITLE11=Mesa Reservada
EXTD=ID3G: 2
EXTT0=
EXTT1=
EXTT2=
EXTT3=
EXTT4=
EXTT5=
EXTT6=
EXTT7=
EXTT8=
EXTT9=
EXTT10=
EXTT11=
PLAYORDER=
